<?xml version="1.0" encoding="UTF-8"?>
<svg id="Layer_2" data-name="Layer 2" xmlns="http://www.w3.org/2000/svg" xmlns:xlink="http://www.w3.org/1999/xlink" viewBox="0 0 322.19 142.32">
  <defs>
    <style>
      .cls-1 {
        fill: url(#linear-gradient-2);
      }

      .cls-2, .cls-3, .cls-4 {
        fill: #fff;
      }

      .cls-5 {
        letter-spacing: -.03em;
      }

      .cls-6 {
        letter-spacing: 0em;
      }

      .cls-7 {
        letter-spacing: -.01em;
      }

      .cls-8 {
        letter-spacing: .03em;
      }

      .cls-9 {
        fill: #1ca8cb;
      }

      .cls-10 {
        letter-spacing: .03em;
      }

      .cls-11 {
        letter-spacing: -.02em;
      }

      .cls-12 {
        letter-spacing: 0em;
      }

      .cls-13 {
        letter-spacing: -.12em;
      }

      .cls-14 {
        letter-spacing: -.02em;
      }

      .cls-3 {
        font-family: Barlow-Italic, Barlow;
        font-size: 16px;
        font-style: italic;
      }

      .cls-15 {
        fill: url(#linear-gradient-3);
      }

      .cls-16 {
        fill: url(#linear-gradient);
      }

      .cls-17 {
        letter-spacing: -.02em;
      }

      .cls-4 {
        font-family: Barlow-Bold, Barlow;
        font-size: 56.69px;
        font-weight: 700;
      }

      .cls-18 {
        letter-spacing: -.03em;
      }
    </style>
    <linearGradient id="linear-gradient" x1="60.16" y1="123.16" x2="95.04" y2="45.99" gradientUnits="userSpaceOnUse">
      <stop offset="0" stop-color="#1ca8cb"/>
      <stop offset="1" stop-color="#1ca8cb" stop-opacity="0"/>
    </linearGradient>
    <linearGradient id="linear-gradient-2" x1="131.26" y1="35.29" x2="151.21" y2="27.89" xlink:href="#linear-gradient"/>
    <linearGradient id="linear-gradient-3" x1="9.03" y1="113.85" x2="90.7" y2="39.58" xlink:href="#linear-gradient"/>
  </defs>
  <g id="OBJECTS">
    <path class="cls-9" d="m152.82,29.36c0,4.24-6.33,7.18-13.09,6.64l-7.72-.6-6.74,19.36c-.67,1.91-2.46,3.2-4.49,3.24l-2.71.02-.26-23.03c-35.71,8.4-60.61,43.97-62.53,69.69-2.11,28.28,26.69,28.28,26.69,28.28-24.84,23.26-69.51,1.85-39.91-49.27,19.79-34.18,51-46.91,68.26-51.23h.01s.02,0,.03-.01c.29-.07.48-.37.41-.67-.06-.31-.35-.5-.66-.44h-.03s-.02,0-.03.01c-12.31,2.22-24.33,6.24-35.75,11.51,11.16-5.79,23.05-10.4,35.4-13.24.02,0,.04-.01.05-.01.25-.05.43-.3.4-.56-.03-.29-.29-.49-.57-.45-.02,0-.04.01-.05.01-37.21,5.6-80.03,26.76-93.39,54.27-15.08,31.05,6.63,52.67,6.63,52.67C1.88,122.01-11.07,80.89,35.98,49.88c33.97-22.39,60.62-24.35,78.96-25.49l2.75.05L117.41.03,120.12,0c2.03-.02,3.85,1.23,4.57,3.13l7.54,20.17,7.51-.59c.53-.04,1.06-.06,1.58-.06,6.13,0,11.51,2.8,11.51,6.71Z"/>
    <path class="cls-9" d="m132.22,23.3l-7.54-20.17C123.97,1.23,122.15-.02,120.12,0l-2.71.03.27,24.41s6.65-.85,14.54-1.14Z"/>
    <path class="cls-16" d="m55.27,104.67c1.92-25.72,26.82-61.29,62.53-69.69,0,0-48.23,5.44-70.08,57.77-8.47,20.29-2.49,37.82,17.21,49.01,5.97-1.13,11.92-4.02,17.03-8.81,0,0-28.81,0-26.69-28.28Z"/>
    <path class="cls-1" d="m152.82,29.36c0,4.24-6.33,7.18-13.09,6.64l-7.72-.6c-4.14-.04-10.7-.27-13.19-.37-.05,0-.11-.01-.15-.01-.27-.03-.56-.04-.87-.03,8.19-.45,34.9-2.66,29.43-11.39,3.29,1.14,5.58,3.21,5.58,5.76Z"/>
    <path class="cls-9" d="m117.8,34.98l.26,23.03,2.71-.02c2.03-.03,3.83-1.32,4.49-3.24l6.74-19.36c-5.2-.06-14.21-.41-14.21-.41Z"/>
    <path class="cls-15" d="m22.76,135.54s-21.7-21.62-6.63-52.67c13.36-27.51,56.18-48.66,93.39-54.27.01,0,.03-.01.05-.01,0,0-43.8,3.51-71.36,25.07-27.55,21.56-29.73,37.27-29.34,56.03.2,9.4,6.86,18.66,13.46,25.57.14.09.28.19.42.28Z"/>
    <path class="cls-9" d="m87.43,56.04s-26.34,20.35-26.87,48.63c-.53,28.28,24.84,26.96,32.51,16.92,0,0-21.9-1.1-20.62-26.17,1.29-25.07,14.98-39.38,14.98-39.38Z"/>
    <path class="cls-2" d="m86.32,57.33c-5.64,6.74-30.44,38.81-17.52,67.9,7.97,5.44,19.52,2.58,24.27-3.65,0,0-21.9-1.1-20.62-26.17,1.06-20.71,10.58-34.07,13.87-38.09Z"/>
    <path class="cls-9" d="m.51,97.54S-1.55,41.83,95.44,22.64c0,0-56.2,5.07-78.76,31.29C-4.46,78.51.51,97.54.51,97.54Z"/>
    <path class="cls-2" d="m.51,97.54S-1.07,54.78,63.76,31.28c-19.09,4.85-33.56,12.11-44.45,19.84-.92.91-1.8,1.84-2.63,2.8C-4.46,78.51.51,97.54.51,97.54Z"/>
    <text class="cls-4" transform="translate(87.78 104.2)"><tspan class="cls-18" x="0" y="0">V</tspan><tspan class="cls-5" x="33.39" y="0">O</tspan><tspan class="cls-13" x="67.06" y="0">Y</tspan><tspan class="cls-14" x="94.95" y="0">A</tspan><tspan x="131.8" y="0">GER</tspan></text>
    <text class="cls-3" transform="translate(118.84 122.21)"><tspan x="0" y="0">E</tspan><tspan class="cls-11" x="9.39" y="0">v</tspan><tspan x="16.5" y="0">e</tspan><tspan class="cls-8" x="24.77" y="0">r</tspan><tspan x="30.86" y="0">y Jour</tspan><tspan class="cls-6" x="72.51" y="0">n</tspan><tspan class="cls-7" x="80.77" y="0">e</tspan><tspan x="88.83" y="0">y </tspan><tspan class="cls-17" x="99.09" y="0">t</tspan><tspan x="104.5" y="0">ells a S</tspan><tspan class="cls-17" x="151.12" y="0">t</tspan><tspan x="156.53" y="0">o</tspan><tspan class="cls-10" x="164.99" y="0">r</tspan><tspan class="cls-12" x="171.09" y="0">y</tspan></text>
  </g>
</svg>